<svg xmlns="http://www.w3.org/2000/svg" width="1057" height="1040" viewBox="0 0 1057 1040" version="1.1"><path d="M 233 13.082 C 229.975 13.546, 226.938 13.732, 226.250 13.495 C 225.563 13.257, 225 13.408, 225 13.831 C 225 14.253, 223.373 14.408, 221.385 14.176 C 219.023 13.901, 217.469 14.230, 216.900 15.127 C 216.422 15.882, 216.024 16.028, 216.015 15.451 C 216.006 14.842, 214.530 14.573, 212.500 14.810 C 210.575 15.035, 209 15.522, 209 15.892 C 209 16.263, 207.762 16.508, 206.250 16.438 C 204.738 16.368, 200.800 16.950, 197.500 17.731 C 194.200 18.513, 190.635 19.332, 189.579 19.552 C 183.840 20.744, 166.466 26.691, 157.164 30.646 C 131.297 41.646, 103.629 60.792, 85.651 80.132 C 81.884 84.184, 77.721 88.630, 76.401 90.011 C 75.080 91.392, 74 92.971, 74 93.520 C 74 94.070, 73.100 95.081, 72 95.768 C 70.900 96.455, 70 97.640, 70 98.401 C 70 99.163, 69.325 100.045, 68.500 100.362 C 67.675 100.678, 67 101.626, 67 102.469 C 67 103.311, 66.550 104, 66 104 C 65.450 104, 65 104.627, 65 105.393 C 65 106.159, 64.325 107.045, 63.500 107.362 C 62.675 107.678, 62 108.626, 62 109.469 C 62 110.311, 61.599 111, 61.108 111 C 60.618 111, 59.934 112.125, 59.589 113.500 C 59.244 114.875, 58.520 116, 57.981 116 C 57.441 116, 57 116.675, 57 117.500 C 57 118.325, 56.599 119, 56.108 119 C 55.618 119, 54.942 120.094, 54.607 121.430 C 54.271 122.767, 53.430 124.454, 52.737 125.180 C 52.044 125.906, 49.151 131.450, 46.309 137.500 C 34.685 162.243, 30.747 174.982, 25.289 205.500 C 23.596 214.962, 23.500 231.903, 23.500 520.500 C 23.500 774.437, 23.729 826.756, 24.870 833 C 28.360 852.105, 30.307 861.137, 32.630 869 C 34.011 873.675, 35.300 878.175, 35.494 879 C 35.688 879.825, 35.938 880.612, 36.048 880.750 C 36.159 880.888, 36.362 881.450, 36.500 882 C 36.638 882.550, 36.862 883.225, 37 883.500 C 37.138 883.775, 37.322 884.337, 37.410 884.750 C 37.499 885.163, 38.193 886.625, 38.954 888 C 39.715 889.375, 40.316 890.725, 40.289 891 C 40.262 891.275, 40.582 892.400, 41 893.500 C 41.418 894.600, 41.747 895.725, 41.730 896 C 41.713 896.275, 44.457 901.787, 47.827 908.250 C 70.019 950.801, 103.422 983.766, 145.754 1004.890 C 157.140 1010.572, 173.524 1017.164, 176.749 1017.362 C 177.986 1017.438, 178.999 1017.890, 178.999 1018.367 C 179 1018.843, 179.900 1018.998, 181 1018.710 C 182.100 1018.423, 183 1018.581, 183 1019.062 C 183 1019.543, 183.675 1019.678, 184.500 1019.362 C 185.325 1019.045, 186 1019.314, 186 1019.960 C 186 1020.680, 186.775 1020.889, 188 1020.500 C 189.100 1020.151, 190 1020.303, 190 1020.839 C 190 1021.375, 190.900 1021.577, 192 1021.290 C 193.100 1021.002, 194 1021.207, 194 1021.745 C 194 1022.283, 195.125 1022.508, 196.500 1022.245 C 197.875 1021.982, 199 1022.227, 199 1022.790 C 199 1023.352, 199.900 1023.577, 201 1023.290 C 202.100 1023.002, 203 1023.191, 203 1023.710 C 203 1024.229, 204.350 1024.455, 206 1024.213 C 207.650 1023.971, 209 1024.173, 209 1024.663 C 209 1025.152, 210.800 1025.381, 213 1025.171 C 215.200 1024.962, 217 1025.178, 217 1025.652 C 217 1026.126, 219.025 1026.353, 221.500 1026.157 C 223.975 1025.960, 226 1026.181, 226.001 1026.649 C 226.002 1028.035, 831.517 1028.462, 843.500 1027.085 C 909.211 1019.532, 967.538 984.112, 1003.371 930 C 1021.114 903.207, 1033.759 870.495, 1037.969 840.500 C 1038.586 836.100, 1039.521 830.062, 1040.046 827.083 C 1040.637 823.726, 1041 707.555, 1041 521.475 C 1041 222.992, 1040.988 221.204, 1038.929 207.392 C 1036.141 188.693, 1033.649 177.732, 1029.039 163.908 C 1025.596 153.581, 1015.534 130.303, 1013.949 129 C 1013.615 128.725, 1012.027 126.025, 1010.421 123 C 1008.814 119.975, 1007.162 117.350, 1006.750 117.167 C 1006.337 116.983, 1006 116.196, 1006 115.417 C 1006 114.637, 1005.605 114, 1005.121 114 C 1004.638 114, 1003.683 112.650, 1003 111 C 1002.317 109.350, 1001.362 108, 1000.879 108 C 1000.395 108, 1000 107.518, 1000 106.929 C 1000 106.339, 999.437 105.269, 998.750 104.551 C 998.063 103.833, 996.825 102.232, 996 100.994 C 994.438 98.651, 992.866 96.676, 987 89.695 C 963.446 61.659, 929.890 38.402, 895.069 25.981 C 883.593 21.887, 868.831 17.893, 858.500 16.087 C 852.826 15.095, 849.241 14.623, 837.500 13.322 C 829.215 12.404, 238.937 12.169, 233 13.082 M 354 143.122 C 319.608 147.076, 284.739 160.192, 256.500 179.795 C 244.337 188.239, 238.499 193.136, 226.675 204.811 C 208.329 222.927, 196.325 239.558, 184.569 263.148 C 171.383 289.606, 164.460 315.818, 162.950 345 C 161.820 366.826, 161.836 677.955, 162.968 698.500 C 168.456 798.127, 243.149 880.878, 343.500 898.507 C 361.852 901.731, 386.528 902.124, 546 901.737 C 716.177 901.323, 707.903 901.577, 733 896.011 C 792.202 882.882, 847.970 840.223, 876.817 786 C 881.973 776.308, 890.739 755.792, 891.303 752.097 C 891.475 750.972, 891.896 749.771, 892.239 749.428 C 892.582 749.085, 892.638 748.219, 892.363 747.503 C 892.088 746.788, 892.352 745.901, 892.948 745.532 C 893.545 745.163, 893.793 744.474, 893.500 744 C 893.207 743.526, 893.405 742.868, 893.940 742.537 C 894.475 742.206, 894.677 741.321, 894.388 740.569 C 894.100 739.817, 894.325 738.917, 894.888 738.569 C 895.452 738.221, 895.677 737.321, 895.388 736.569 C 895.100 735.817, 895.302 734.931, 895.838 734.600 C 896.374 734.269, 896.590 733.149, 896.319 732.112 C 896.048 731.074, 896.273 729.949, 896.819 729.612 C 897.365 729.274, 897.590 728.149, 897.319 727.112 C 897.048 726.074, 897.273 724.949, 897.819 724.612 C 898.365 724.274, 898.590 723.149, 898.319 722.112 C 898.048 721.074, 898.273 719.949, 898.819 719.612 C 899.365 719.274, 899.579 718.105, 899.293 717.014 C 899.008 715.923, 899.110 714.236, 899.521 713.265 C 899.932 712.294, 900.174 709.824, 900.059 707.775 C 899.944 705.727, 900.056 703.702, 900.306 703.275 C 900.557 702.849, 901.076 621.950, 901.460 523.500 C 902.239 323.807, 902.490 332.840, 895.385 305.026 C 873.512 219.396, 801.146 155.286, 713 143.449 C 704.282 142.278, 673.557 142.058, 532 142.149 C 438.225 142.210, 358.125 142.648, 354 143.122 M 360.500 198.676 C 325.640 203.311, 292.862 218.750, 268.727 241.905 C 243.366 266.235, 228.252 293.605, 220.797 328.701 L 218.503 339.500 218.227 515.954 C 217.988 668.973, 218.153 693.957, 219.468 704.065 C 224.308 741.270, 238.902 770.936, 265.466 797.568 C 286.947 819.105, 311.074 833.005, 339.981 840.495 C 357.157 844.946, 356.245 844.924, 531.844 845.023 C 652.033 845.090, 700.725 844.797, 706.482 843.973 C 757.775 836.623, 801.194 806.692, 826.195 761.448 C 828.780 756.770, 830.973 752.618, 831.067 752.221 C 831.162 751.824, 831.667 750.375, 832.190 749 C 832.713 747.625, 833.153 746.275, 833.169 746 C 833.184 745.725, 833.699 744.600, 834.313 743.500 C 834.927 742.400, 835.501 741.163, 835.590 740.750 C 835.678 740.337, 835.862 739.775, 836 739.500 C 836.138 739.225, 836.362 738.550, 836.500 738 C 836.638 737.450, 836.841 736.888, 836.952 736.750 C 837.062 736.612, 837.309 735.677, 837.499 734.672 C 837.690 733.666, 838.174 732.091, 838.574 731.172 C 838.974 730.252, 839.430 728.867, 839.586 728.093 C 839.742 727.319, 840.575 723.494, 841.437 719.593 C 844.893 703.962, 845.018 697.002, 845.006 521 C 844.994 334.501, 845.074 337.996, 840.360 319.029 C 827.361 266.738, 788.500 224.397, 737.159 206.590 C 731.471 204.618, 722.471 202.005, 717.159 200.784 L 707.500 198.564 535.500 198.421 C 440.900 198.342, 362.150 198.457, 360.500 198.676 M 724.487 267.745 C 712.143 272.146, 701.611 281.342, 695.916 292.691 C 692.550 299.400, 692.500 299.692, 692.500 312.547 L 692.500 325.595 696.246 333.179 C 700.683 342.162, 709.808 351.345, 718.279 355.352 C 736.343 363.898, 756.425 360.833, 771.044 347.299 C 774.320 344.266, 777 341.196, 777 340.476 C 777 339.756, 777.373 339.017, 777.830 338.833 C 779.601 338.122, 784.035 326.830, 785.192 320.087 C 788.591 300.266, 777.628 279.815, 758.572 270.426 C 751.070 266.730, 750.074 266.504, 740.072 266.239 C 731.909 266.022, 728.358 266.365, 724.487 267.745 M 498.711 320.561 C 465.563 325.720, 433.124 339.975, 407 360.865 C 398.277 367.841, 380.989 384.961, 374.470 393.079 C 355.412 416.815, 340.212 449.070, 334.084 478.782 C 329.686 500.100, 329.016 532.135, 332.515 553.767 C 341.225 607.617, 372.787 656.364, 419.558 688.201 C 443.799 704.701, 473.373 715.980, 504.128 720.454 C 517.760 722.437, 546.038 722.452, 560 720.483 C 625.209 711.289, 682.935 669.238, 713.021 609.013 C 717.170 600.707, 723.658 584.829, 724.351 581.285 C 724.543 580.303, 724.987 578.825, 725.338 578 C 725.689 577.175, 726.107 575.600, 726.267 574.500 C 726.427 573.400, 726.909 571.938, 727.338 571.250 C 727.767 570.563, 727.859 569.581, 727.543 569.069 C 727.226 568.557, 727.432 567.851, 728 567.500 C 728.568 567.149, 728.774 566.443, 728.457 565.931 C 728.141 565.419, 728.225 564.445, 728.644 563.768 C 729.391 562.558, 729.946 559.969, 730.093 557 C 730.134 556.175, 730.409 554.825, 730.704 554 C 731.912 550.621, 732.798 539.930, 733.314 522.500 C 733.814 505.651, 732.309 481.229, 730.495 476.750 C 730.105 475.788, 730.024 474.380, 730.315 473.622 C 730.606 472.864, 730.452 471.851, 729.974 471.372 C 729.496 470.892, 728.942 468.908, 728.743 466.963 C 728.544 465.018, 728.112 462.990, 727.782 462.456 C 727.080 461.320, 725.803 454.906, 726.021 453.612 C 726.103 453.123, 725.781 452.448, 725.305 452.112 C 724.829 451.775, 723.145 447.450, 721.563 442.500 C 717.768 430.624, 707.611 410.814, 699.259 399 C 690.601 386.752, 669.228 365.382, 657 356.748 C 637.298 342.836, 605.162 329.074, 580.551 324.010 C 556.257 319.012, 518.810 317.434, 498.711 320.561 M 507.749 388.556 C 497.686 390.122, 481.036 395.453, 471.829 400.056 C 437.629 417.153, 412.225 449.305, 402.344 488 C 401.010 493.225, 400.119 498.287, 400.365 499.249 C 400.611 500.211, 400.373 501.269, 399.837 501.601 C 399.300 501.932, 398.977 504.089, 399.119 506.393 C 399.261 508.697, 399.111 511.013, 398.786 511.541 C 398.031 512.768, 398.011 528.199, 398.763 529.421 C 399.075 529.928, 399.308 532.296, 399.282 534.685 C 399.256 537.073, 399.612 539.260, 400.074 539.545 C 400.535 539.831, 400.659 540.725, 400.349 541.532 C 400.040 542.339, 400.128 543.788, 400.547 544.750 C 400.965 545.712, 401.217 547.248, 401.106 548.161 C 400.995 549.075, 401.383 550.119, 401.968 550.481 C 402.554 550.842, 402.762 551.577, 402.430 552.113 C 402.099 552.649, 402.372 553.743, 403.036 554.544 C 403.701 555.345, 403.910 556, 403.500 556 C 403.090 556, 403.256 556.604, 403.869 557.342 C 404.481 558.080, 404.697 558.969, 404.349 559.318 C 404 559.666, 404.284 560.638, 404.980 561.476 C 405.676 562.314, 405.910 563, 405.500 563 C 405.090 563, 405.256 563.604, 405.869 564.342 C 406.481 565.080, 406.765 565.901, 406.500 566.167 C 405.386 567.281, 419.395 593.179, 425.402 601.110 C 444.722 626.618, 472.793 644.210, 505.266 651.159 C 518.975 654.092, 544.356 654.341, 557 651.667 C 584.432 645.863, 605.806 634.384, 625.095 615.095 C 650.264 589.926, 663.243 559.404, 664.684 522 C 667.316 453.662, 634.594 407.664, 572.500 392.419 C 551.794 387.335, 525.623 385.774, 507.749 388.556" stroke="none" fill="#bd152e" fill-rule="evenodd"/><path d="" stroke="none" fill="#bd152e" fill-rule="evenodd"/></svg>
